# xmcd CD database file
#
# Track frame offsets:
#	150
#	23733
#	41124
#	58091
#	74404
#	92686
#	114513
#	133379
#	147070
#	169713
#
# Disc length: 2506 seconds
#
# Revision: 0
# Processed by: cddbd v1.5.2PL0 Copyright (c) Steve Scherf et al.
# Submitted via: NeoAudio 9.9.9
#
DISCID=8f09c80a
DTITLE=Oscar D'Leon - Colleccion De Oro CD3
DYEAR=2004
DGENRE=Salsa
TTITLE0=Te borrare de mi mente
TTITLE1=Te condeno al amor
TTITLE2=Mis Hijos
TTITLE3=La colora
TTITLE4=De ti depende
TTITLE5=Para no escapar de ti
TTITLE6=Temo decirselo todo
TTITLE7=Pensando en ti
TTITLE8=No te puedo olvidar
TTITLE9=Esposa
EXTD=YEAR: 2004
EXTT0=
EXTT1=
EXTT2=
EXTT3=
EXTT4=
EXTT5=
EXTT6=
EXTT7=
EXTT8=
EXTT9=
PLAYORDER=
